<svg width="24" height="24" xmlns="http://www.w3.org/2000/svg">

 <g>
  <title>background</title>
  <rect fill="none" id="canvas_background" height="26" width="26" y="-1" x="-1"/>
 </g>
 <g>
  <g stroke="null" id="svg_6">
   <path stroke="null" id="svg_2" fill="#FFFFFF" class="active-path" d="m3.715931,13.453986l-1.019746,4.686224l4.686224,-1.019746l-3.666478,-3.666478zm0,0"/>
   <path stroke="null" id="svg_3" fill="#FFFFFF" class="active-path" d="m19.516054,5.729423c0.585867,-0.584442 0.915492,-1.377868 0.915967,-2.205253c0.000475,-0.827623 -0.327962,-1.621287 -0.913117,-2.206441c-0.001187,-0.001187 -0.002375,-0.002375 -0.003325,-0.003563c-0.583255,-0.584442 -1.375493,-0.911929 -2.201217,-0.909792l-0.002138,0c-0.82786,-0.0019 -1.622236,0.327962 -2.205491,0.915967l-2.198367,2.203829l4.403621,4.403858l2.204066,-2.198605zm0,0"/>
   <path stroke="null" id="svg_4" fill="#FFFFFF" class="active-path" d="m16.451117,8.786761l-4.401484,-4.401484l-7.831667,7.85114l4.38201,4.382248l7.85114,-7.831905zm0,0"/>
   <path stroke="null" id="svg_5" fill="#FFFFFF" class="active-path" d="m22.465101,22.37973l-20.930201,0c-0.335799,0 -0.607953,0.272154 -0.607953,0.607953c0,0.335562 0.272154,0.607953 0.607953,0.607953l20.930201,0c0.335798,0 0.607953,-0.272391 0.607953,-0.607953c0,-0.335798 -0.272154,-0.607953 -0.607953,-0.607953zm0,0"/>
  </g>
 </g>
</svg>