<svg width="24" height="24" xmlns="http://www.w3.org/2000/svg">

 <g>
  <rect fill="none" id="canvas_background" height="26" width="26" y="-1" x="-1"/>
 </g>
 <g>
  <title>Layer 1</title>
  <g stroke="null" id="svg_37">
   <path fill="#ffffff" stroke="null" id="svg_3" d="m3.223389,12.89539l-1.267211,-0.704006l-0.938675,-0.516271l0,6.993128c0,0.657072 0.140801,1.267211 0.422404,1.830416l0.797874,-0.563205l5.819785,-4.317905l-4.834176,-2.722157z"/>
   <path fill="#ffffff" stroke="null" id="svg_6" d="m21.152081,20.686392l-6.38299,-4.740309l-2.769091,-1.87735l-2.769091,1.924284l-6.38299,4.693375l-0.797874,0.563205c0.657072,0.563205 1.548814,0.891741 2.440555,0.844807l15.018799,0c0.891741,0.046934 1.783482,-0.281602 2.440555,-0.844807l-0.797874,-0.563205z"/>
   <path fill="#ffffff" stroke="null" id="svg_9" d="m12.281602,2.00676c-0.187735,-0.140801 -0.422404,-0.140801 -0.610139,0l-3.801634,2.909892l8.213406,0l-3.801634,-2.909892z"/>
   <path fill="#ffffff" stroke="null" id="svg_12" d="m1.252172,10.079365c-0.093867,0.093867 -0.140801,0.187735 -0.187735,0.281602c-0.046934,0.093867 -0.046934,0.140801 -0.046934,0.234669l0.938675,0.516271l0.985609,0.563205l0,-2.956826l-1.689615,1.361079z"/>
   <path fill="#ffffff" stroke="null" id="svg_15" d="m21.996888,12.238317l-6.101387,3.37923l5.819785,4.270971l0.797874,0.563205c0.281602,-0.563205 0.422404,-1.173344 0.422404,-1.830416l0,-6.946195l-0.938675,0.563205z"/>
   <path fill="#ffffff" stroke="null" id="svg_18" d="m3.974329,5.902261l0,6.289122l4.974977,2.816025l2.816025,-1.924284c0.140801,-0.093867 0.37547,-0.093867 0.563205,0l2.769091,1.924284l4.974977,-2.816025l0,-6.289122l-16.098276,0z"/>
   <path fill="#ffffff" stroke="null" id="svg_21" d="m22.935563,10.314034c0,-0.093867 -0.093867,-0.187735 -0.187735,-0.281602l-1.689615,-1.314145l0,2.909892l0.985609,-0.563205l0.938675,-0.469337c0,-0.093867 -0.046934,-0.187735 -0.046934,-0.281602z"/>
  </g>
 </g>
</svg>