<svg width="24" height="24" xmlns="http://www.w3.org/2000/svg">

 <g>
  <title>background</title>
  <rect fill="none" id="canvas_background" height="26" width="26" y="-1" x="-1"/>
 </g>
 <g>
  <title>Layer 1</title>
  <path fill="#ffffff" stroke="null" id="svg_1" d="m17.928655,0.800358l-2.003412,0l-7.850485,0l-2.003472,0l-4.985928,0l0.430989,2.461297c0.462775,2.643128 2.495051,4.660256 5.040674,5.167818c0.632321,1.452912 1.834762,2.600428 3.325662,3.15886c0.063632,0.788806 0.64228,1.431801 1.399419,1.592818l0,3.382197c-0.783259,0.169187 -1.373894,0.854644 -1.398643,1.68257l-2.142722,0c-0.383519,0 -0.694461,0.310942 -0.694461,0.694461l0,4.259264l9.90739,0l0,-3.771262c0,-0.653014 -0.529389,-1.182403 -1.182403,-1.182403l-1.65478,0c-0.024689,-0.827927 -0.615324,-1.513383 -1.398584,-1.68257l0,-3.384761c0.749923,-0.164774 1.32219,-0.80288 1.387432,-1.585543c1.496506,-0.556702 2.703658,-1.706663 3.337649,-3.163571c2.545682,-0.507562 4.577899,-2.524631 5.040674,-5.167818l0.430989,-2.461297l-4.985988,0l0,-0.00006zm-3.684253,20.495287c0,0.239916 -0.194473,0.434329 -0.434329,0.434329l-3.620144,0c-0.239796,0 -0.434269,-0.194413 -0.434269,-0.434329l0,-1.226832c0,-0.239796 0.194473,-0.434329 0.434269,-0.434329l3.620144,0c0.239856,0 0.434329,0.194533 0.434329,0.434329l0,1.226832zm-11.670648,-18.2191l-0.210575,-1.202739l3.708108,0l0,4.217041c0,0.38829 0.037988,0.767694 0.109969,1.134873c-1.838638,-0.591291 -3.25875,-2.156915 -3.607502,-4.149176zm11.981948,1.731174l-0.916248,0.893169c-0.077348,0.07538 -0.112652,0.183977 -0.094404,0.290487l0.2163,1.261123c0.045979,0.268064 -0.235324,0.472436 -0.476074,0.345889l-1.132548,-0.595466c-0.095656,-0.050214 -0.209859,-0.050214 -0.305396,0l-1.132607,0.595466c-0.240691,0.126548 -0.522054,-0.077885 -0.476015,-0.345889l0.2163,-1.261123c0.018249,-0.10645 -0.017056,-0.215047 -0.094404,-0.290487l-0.916248,-0.893169c-0.194771,-0.189821 -0.087307,-0.520563 0.18183,-0.559684l1.266251,-0.183977c0.106868,-0.015505 0.199304,-0.082656 0.247132,-0.179504l0.566304,-1.147457c0.120345,-0.243852 0.468143,-0.243852 0.588429,0l0.566304,1.147457c0.047828,0.096849 0.140264,0.163999 0.247072,0.179504l1.266311,0.183977c0.269018,0.039121 0.376482,0.369863 0.181711,0.559684zm6.870546,-1.731174c-0.348811,1.99226 -1.768864,3.557944 -3.607561,4.149235c0.071981,-0.367239 0.109969,-0.746643 0.109969,-1.134933l0,-4.217041l3.708167,0l-0.210575,1.202739z"/>
 </g>
</svg>