<svg width="24" height="24" xmlns="http://www.w3.org/2000/svg">

 <g>
  <title>background</title>
  <rect fill="none" id="canvas_background" height="26" width="26" y="-1" x="-1"/>
 </g>
 <g>
  <title>Layer 1</title>
  <g stroke="null" id="svg_10">
   <path fill="#ffffff" stroke="null" id="svg_1" d="m7.280762,21.438476a1.887695,1.887695 0 0 0 1.887695,1.887695l5.663086,0a1.887695,1.887695 0 0 0 1.887695,-1.887695l0,-0.943848l-9.438477,0l0,0.943848z"/>
   <path fill="#ffffff" stroke="null" id="svg_2" d="m7.280762,17.663086l9.438477,0l0,1.887695l-9.438477,0l0,-1.887695z"/>
   <path fill="#ffffff" stroke="null" id="svg_3" d="m21.438476,7.280762l1.887695,0l0,1.887695l-1.887695,0l0,-1.887695z"/>
   <path fill="#ffffff" stroke="null" id="svg_4" d="m19.824261,4.72671l1.887375,-1.887375l1.334601,1.334601l-1.887375,1.887375l-1.334601,-1.334601z"/>
   <path fill="#ffffff" stroke="null" id="svg_5" d="m19.824025,11.724633l1.334601,-1.334601l1.887375,1.887375l-1.334601,1.334601l-1.887375,-1.887375z"/>
   <path fill="#ffffff" stroke="null" id="svg_6" d="m0.673828,7.280762l1.887695,0l0,1.887695l-1.887695,0l0,-1.887695z"/>
   <path fill="#ffffff" stroke="null" id="svg_7" d="m0.949904,4.172554l1.334601,-1.334601l1.887375,1.887375l-1.334601,1.334601l-1.887375,-1.887375z"/>
   <path fill="#ffffff" stroke="null" id="svg_8" d="m0.949314,12.275013l1.887375,-1.887375l1.334601,1.334601l-1.887375,1.887375l-1.334601,-1.334601z"/>
   <path fill="#ffffff" stroke="null" id="svg_9" d="m12,0.673828a7.550781,7.550781 0 0 0 -3.775391,14.090112l0,1.955298l2.831543,0l0,-5.158009l-2.411295,-1.607491a0.943848,0.943848 0 0 1 -0.420248,-0.785281l0,-1.887695l1.887695,0l0,1.382619l1.887695,1.258385l1.887695,-1.258385l0,-1.382619l1.887695,0l0,1.887695a0.943848,0.943848 0 0 1 -0.420366,0.785281l-2.411177,1.607491l0,5.158009l2.831543,0l0,-1.955298a7.550781,7.550781 0 0 0 -3.775391,-14.090112zm2.831543,4.719238a0.943848,0.943848 0 1 1 0.943848,-0.943848a0.943848,0.943848 0 0 1 -0.943848,0.943848z"/>
  </g>
 </g>
</svg>