<svg width="26" height="24" xmlns="http://www.w3.org/2000/svg">

 <g>
  <rect fill="none" id="canvas_background" height="26" width="28" y="-1" x="-1"/>
 </g>
 <g>
  <title>Layer 1</title>
  <g stroke="null" id="svg_7">
   <path stroke="null" id="svg_2" fill="#ffffff" d="m20.35714,11.752209l0,0.946111c0,0.211749 -0.175706,0.387455 -0.387455,0.387455l-1.495757,0c-0.211749,0 -0.387455,-0.175706 -0.387455,-0.387455l0,-0.360423l-5.050431,1.306534l-4.883735,-1.261481l0,0.31537c0,0.211749 -0.175706,0.387455 -0.387455,0.387455l-1.495757,0c-0.211749,0 -0.387455,-0.175706 -0.387455,-0.387455l0,-0.901058l-3.64478,-0.968638l0,7.627458c0,1.099291 0.919079,2.045402 2.149024,2.045402l17.295812,0c1.229944,0 2.135508,-0.950616 2.135508,-2.045402l0,-7.627458l-3.460063,0.923585z"/>
   <path stroke="null" id="svg_3" fill="#ffffff" d="m21.686201,21.573743l-17.295812,0c-1.229944,0 -2.144519,-0.495582 -2.144519,-1.594873l0,1.15786c0,1.099291 0.919079,1.923759 2.149024,1.923759l17.295812,0c1.229944,0 2.135508,-0.828974 2.135508,-1.928265l0,-1.15786c0,1.099291 -0.914574,1.599378 -2.140013,1.599378z"/>
   <path stroke="null" id="svg_4" fill="#ffffff" d="m22.154751,5.377222l-18.327524,0c-1.302029,0 -2.365278,0.950616 -2.365278,2.117487l0,2.117487l4.383648,1.135333l0,-0.53613c0,-0.211749 0.175706,-0.387455 0.387455,-0.387455l1.495757,0c0.211749,0 0.387455,0.175706 0.387455,0.387455l0,1.121817l4.883735,1.261481l5.054936,-1.306534l0,-1.076765c0,-0.211749 0.175706,-0.387455 0.387455,-0.387455l1.495757,0c0.211749,0 0.387455,0.175706 0.387455,0.387455l0,0.491077l4.212447,-1.09028l0,-2.117487c-0.013516,-1.16687 -1.08127,-2.117487 -2.383299,-2.117487z"/>
   <path stroke="null" id="svg_5" fill="#ffffff" d="m8.562288,4.633849l0,-0.92809c0,-0.837984 0.684804,-1.527294 1.527294,-1.527294l5.888415,0c0.837984,0 1.527294,0.684804 1.527294,1.527294l0,0.92809l1.563336,0l0,-1.500262c0,-1.220934 -0.946111,-2.194077 -2.167045,-2.194077l-7.717563,0c-1.220934,0 -2.185066,0.964132 -2.185066,2.185066l0,1.500262l1.563336,0.009011z"/>
  </g>
 </g>
</svg>