<svg width="16" height="16" xmlns="http://www.w3.org/2000/svg">

 <g>
  <title>background</title>
  <rect fill="none" id="canvas_background" height="18" width="18" y="-1" x="-1"/>
 </g>
 <g>
  <title>Layer 1</title>
  <path stroke="null" id="svg_2" fill="#FFFFFF" class="active-path" d="m8,0.488806c-4.330302,0 -7.83765,3.448566 -7.83765,7.701797c0,3.4035 2.245487,6.289714 5.358993,7.307302c0.391883,0.072498 0.535573,-0.165897 0.535573,-0.370329c0,-0.182879 -0.006531,-0.667507 -0.009797,-1.309541c-2.180173,0.464381 -2.639982,-1.033264 -2.639982,-1.033264c-0.356613,-0.88892 -0.871939,-1.126662 -0.871939,-1.126662c-0.70996,-0.477444 0.054864,-0.467646 0.054864,-0.467646c0.787031,0.053557 1.200467,0.793562 1.200467,0.793562c0.698857,1.177607 1.834663,0.837322 2.282716,0.640728c0.070539,-0.498344 0.272358,-0.837322 0.496385,-1.029998c-1.740611,-0.192676 -3.57005,-0.854957 -3.57005,-3.805832c0,-0.840588 0.303709,-1.527689 0.806625,-2.066527c-0.088174,-0.194635 -0.352694,-0.977747 0.068579,-2.038442c0,0 0.656403,-0.206391 2.155354,0.789643c0.627012,-0.171122 1.293212,-0.25603 1.959413,-0.259949c0.6662,0.003919 1.332401,0.088827 1.959413,0.259949c1.489154,-0.996035 2.145557,-0.789643 2.145557,-0.789643c0.421274,1.060695 0.156753,1.843807 0.078377,2.038442c0.49965,0.538838 0.803359,1.225939 0.803359,2.066527c0,2.958713 -1.832051,3.609891 -3.575928,3.799301c0.274318,0.231211 0.529041,0.703429 0.529041,1.425146c0,1.030651 -0.009797,1.858829 -0.009797,2.108981c0,0.201819 0.137159,0.442827 0.538838,0.365757c3.135713,-1.011057 5.37924,-3.899231 5.37924,-7.297505c0,-4.253231 -3.509308,-7.701797 -7.83765,-7.701797z"/>
 </g>
</svg>