<svg width="16" height="16" xmlns="http://www.w3.org/2000/svg">

 <g>
  <rect fill="none" id="canvas_background" height="18" width="18" y="-1" x="-1"/>
 </g>
 <g>
  <g stroke="null" id="svg_5">
   <path stroke="null" id="svg_3" fill="#FFFFFF" class="active-path" d="m5.942546,4.061556c-1.870248,1.935038 -1.462126,5.146299 0.680214,6.568851c0.070589,0.046894 0.164502,0.03759 0.225136,-0.021648c0.451016,-0.440688 0.832558,-0.867543 1.166649,-1.410424c0.051112,-0.083057 0.019322,-0.190833 -0.066433,-0.237293c-0.326771,-0.177032 -0.651929,-0.508982 -0.834978,-0.859634l-0.000217,0.000124c-0.219274,-0.436625 -0.293926,-0.926068 -0.177838,-1.431545c0.000124,0.000031 0.000248,0.000062 0.000372,0.000062c0.13358,-0.647153 0.82834,-1.249148 1.358971,-1.805893c-0.001117,-0.000372 -0.002202,-0.000775 -0.003319,-0.001148l1.988135,-2.029167c0.792301,-0.808646 2.095539,-0.815314 2.896059,-0.014794c0.808615,0.79227 0.821982,2.102083 0.029712,2.910698l-1.204239,1.238355c-0.055733,0.057315 -0.073815,0.140931 -0.047732,0.216514c0.277271,0.804056 0.345473,1.937798 0.159664,2.794362c-0.00521,0.023974 0.024378,0.039668 0.041529,0.022144l2.562992,-2.615904c1.637297,-1.671072 1.623402,-4.391805 -0.03086,-6.046067c-1.688223,-1.688223 -4.43659,-1.674173 -6.107476,0.03117l-2.626076,2.680259c-0.003474,0.00366 -0.006761,0.007381 -0.010266,0.010979z"/>
   <path stroke="null" id="svg_4" fill="#FFFFFF" class="active-path" d="m10.734037,10.998892c-0.000031,0.000093 -0.000093,0.000186 -0.000124,0.000279c0.001644,-0.000682 0.003163,-0.001334 0.004807,-0.002047c0.523063,-0.956462 0.626032,-2.053421 0.380891,-3.122777l-0.001117,0.001148l-0.00121,-0.000527c-0.232765,-0.95243 -0.871451,-1.898192 -1.73887,-2.480493c-0.074621,-0.050089 -0.193811,-0.044289 -0.263687,0.01222c-0.439385,0.355273 -0.869466,0.810848 -1.15325,1.392219c-0.044568,0.091276 -0.011196,0.200913 0.076637,0.251901c0.329345,0.191206 0.626776,0.471144 0.825921,0.842793l0.00031,-0.000217c0.155198,0.262539 0.308131,0.760697 0.20907,1.295949c-0.000062,0 -0.000155,0 -0.000217,0c-0.092424,0.709647 -0.809049,1.360584 -1.378727,1.947134l0.000279,0.000279c-0.433647,0.443448 -1.536003,1.567235 -1.977404,2.018188c-0.79227,0.808615 -2.102083,0.821982 -2.910698,0.029712c-0.808615,-0.79227 -0.821982,-2.102083 -0.029712,-2.910698l1.207805,-1.242077c0.054741,-0.056292 0.07335,-0.138108 0.049003,-0.212761c-0.268184,-0.822851 -0.341658,-1.931037 -0.17238,-2.786639c0.004714,-0.02385 -0.024626,-0.039079 -0.041653,-0.02171l-2.524441,2.576546c-1.654076,1.688223 -1.640057,4.436869 0.031201,6.108096c1.68813,1.654014 4.422603,1.626069 6.076616,-0.06206c0.574609,-0.642749 3.034323,-2.920127 3.330947,-3.634457z"/>
  </g>
 </g>
</svg>