<svg id="Capa_1" enable-background="new 0 0 512 512" height="512" viewBox="0 0 512 512" width="512" xmlns="http://www.w3.org/2000/svg"><g><g><path d="m222.01 426.728h-138.08c-4.122 0-7.463-3.341-7.463-7.463s3.341-7.463 7.463-7.463h138.08c4.122 0 7.463 3.341 7.463 7.463-.001 4.122-3.341 7.463-7.463 7.463z" fill="#0acefa"/></g><g><path d="m160.35 391.811h-146.063c-4.122 0-7.463-3.341-7.463-7.463s3.341-7.463 7.463-7.463h146.063c4.122 0 7.463 3.341 7.463 7.463 0 4.123-3.341 7.463-7.463 7.463z" fill="#0acefa"/></g><g><path d="m138.056 357.265h-63.578c-3.587 0-6.96-1.397-9.498-3.934l-15.206-15.207h-35.487c-4.122 0-7.463-3.341-7.463-7.463s3.341-7.463 7.463-7.463h36.105c3.588 0 6.961 1.397 9.498 3.933l15.207 15.208h62.959c4.122 0 7.463 3.341 7.463 7.463s-3.341 7.463-7.463 7.463z" fill="#0acefa"/></g><g><path d="m133.15 479.315h-29.878c-4.122 0-7.463-3.341-7.463-7.463s3.341-7.463 7.463-7.463h29.26l15.206-15.207c2.54-2.538 5.913-3.934 9.499-3.934h54.222c4.122 0 7.463 3.341 7.463 7.463s-3.341 7.463-7.463 7.463h-53.605l-15.205 15.206c-2.541 2.538-5.914 3.935-9.499 3.935z" fill="#0acefa"/></g><g><path d="m426.66 426.728h-138.08c-4.122 0-7.463-3.341-7.463-7.463s3.341-7.463 7.463-7.463h138.08c4.122 0 7.463 3.341 7.463 7.463s-3.341 7.463-7.463 7.463z" fill="#0acefa"/></g><g><path d="m496.303 391.811h-146.063c-4.122 0-7.463-3.341-7.463-7.463s3.341-7.463 7.463-7.463h146.064c4.122 0 7.463 3.341 7.463 7.463-.001 4.123-3.342 7.463-7.464 7.463z" fill="#0acefa"/></g><g><path d="m436.112 357.265h-63.578c-4.122 0-7.463-3.341-7.463-7.463s3.341-7.463 7.463-7.463h62.959l15.207-15.208c2.537-2.536 5.91-3.933 9.498-3.933h36.105c4.122 0 7.463 3.341 7.463 7.463s-3.341 7.463-7.463 7.463h-35.487l-15.206 15.206c-2.538 2.538-5.911 3.935-9.498 3.935z" fill="#0acefa"/></g><g><path d="m407.318 479.315h-29.878c-3.586 0-6.958-1.396-9.496-3.932l-15.208-15.209h-53.605c-4.122 0-7.463-3.341-7.463-7.463s3.341-7.463 7.463-7.463h54.222c3.586 0 6.959 1.396 9.496 3.931l15.209 15.21h29.259c4.122 0 7.463 3.341 7.463 7.463s-3.34 7.463-7.462 7.463zm-53.965-19.142h.01z" fill="#0acefa"/></g><g><path d="m247.63 14.194c-28.558 46.648-93.447 85.264-178.019 107.468-4.109 1.079-7.098 4.653-7.386 8.891-.575 8.481-.875 17.377-.875 26.72 0 140.465 147.823 302.358 185.359 341.203 4.696 4.86 12.474 4.86 17.171 0 37.537-38.845 185.359-200.738 185.359-341.203 0-9.344-.299-18.239-.875-26.72-.288-4.238-3.277-7.812-7.386-8.891-84.571-22.204-149.46-60.82-178.018-107.468-3.524-5.755-11.807-5.755-15.33 0z" fill="#b1abb5"/></g><g><g><path d="m448.365 130.553c-.287-4.238-3.277-7.812-7.386-8.891-12.13-3.185-23.839-6.718-35.11-10.553.006.941.023 1.866.023 2.816 0 140.465-147.823 302.358-185.359 341.203-2.703 2.797-6.426 3.975-9.996 3.552 15.358 17.85 28.236 31.582 36.173 39.796 4.696 4.86 12.474 4.86 17.171 0 37.537-38.845 185.36-200.738 185.36-341.203-.001-9.343-.3-18.238-.876-26.72z" fill="#786e79"/></g></g><g><g><g><g><path d="m307.747 252.842h-14.925v-43.777c0-20.692-16.835-37.527-37.527-37.527s-37.527 16.835-37.527 37.527v43.777h-14.925v-43.777c0-28.922 23.529-52.452 52.452-52.452s52.452 23.529 52.452 52.452z" fill="#def2fd"/></g></g><g><g><path d="m305.44 324.918h-100.29c-10.217 0-18.5-8.283-18.5-18.5v-60.052c0-10.217 8.283-18.5 18.5-18.5h100.29c10.217 0 18.5 8.283 18.5 18.5v60.052c0 10.217-8.283 18.5-18.5 18.5z" fill="#dcf5ff"/></g></g><g><path d="m305.532 227.865h-4.056v56.181c0 10.166-8.241 18.408-18.408 18.408h-96.418v4.056c0 10.166 8.241 18.408 18.408 18.408h100.475c10.166 0 18.408-8.241 18.408-18.408v-60.237c-.001-10.166-8.242-18.408-18.409-18.408z" fill="#97e4f9"/></g></g><g><g><path d="m271.072 272.835c0-8.807-7.418-15.881-16.346-15.315-7.555.478-13.729 6.567-14.302 14.116-.512 6.742 3.337 12.647 9.019 15.201v9.615c0 1.803 1.462 3.264 3.264 3.264h6.037c1.803 0 3.264-1.461 3.264-3.264v-9.615c5.342-2.402 9.064-7.766 9.064-14.002z" fill="#554e57"/></g></g><g><g><path d="m254.727 257.519c-.961.061-1.9.214-2.808.447 6.628 1.698 11.528 7.711 11.528 14.868 0 6.237-3.722 11.6-9.064 14.001v9.615c0 1.528-1.052 2.807-2.47 3.163.255.064.52.101.795.101h6.037c1.803 0 3.264-1.461 3.264-3.264v-9.615c5.342-2.401 9.064-7.765 9.064-14.001-.001-8.806-7.418-15.88-16.346-15.315z" fill="#453e43"/></g></g></g><g><circle cx="14.286" cy="329.554" fill="#09a6ee" r="14.286"/></g><g><circle cx="14.286" cy="386.339" fill="#09a6ee" r="14.286"/></g><g><circle cx="497.714" cy="329.554" fill="#09a6ee" r="14.286"/></g><g><circle cx="83.93" cy="419.265" fill="#09a6ee" r="14.286"/></g><g><circle cx="426.944" cy="419.265" fill="#09a6ee" r="14.286"/></g><g><circle cx="407.318" cy="471.852" fill="#09a6ee" r="14.286"/></g><g><circle cx="103.272" cy="471.852" fill="#09a6ee" r="14.286"/></g><g><circle cx="497.714" cy="386.339" fill="#09a6ee" r="14.286"/></g><g><circle cx="254.665" cy="438.424" fill="#453e43" r="14.286"/></g><g><circle cx="254.665" cy="75.441" fill="#453e43" r="14.286"/></g><g><circle cx="106.359" cy="160.288" fill="#453e43" r="14.286"/></g><g><circle cx="404.231" cy="160.288" fill="#453e43" r="14.286"/></g></g></svg>